PathFileType	4	(X/Y/Z)	C:/Users/beibeiliu/ov580/test_trc/User1\sequence.12_training_dense_left.trc
DataRate	CameraRate	NumFrames	NumMarkers	Units	OrigDataRate	OrigDataStartFrame	OrigNumFrames
120	120	22	19	mm	120	30	58
Frame#	Time	ThumbCMC			ThumbMCP			ThumbIP			ThumbTip			IndexMCP			IndexPIP			IndexTip			MiddleMCP			MiddlePIP			MiddleTip			RingMCP			RingPIP			RingTip			PinkyMCP			PinkyPIP			PinkyTip			BackHand1			BackHand2			BackHand3	
		X0	Y0	Z0	X1	Y1	Z1	X2	Y2	Z2	X3	Y3	Z3	X4	Y4	Z4	X5	Y5	Z5	X6	Y6	Z6	X7	Y7	Z7	X8	Y8	Z8	X9	Y9	Z9	X10	Y10	Z10	X11	Y11	Z11	X12	Y12	Z12	X13	Y13	Z13	X14	Y14	Z14	X15	Y15	Z15	X16	Y16	Z16	X17	Y17	Z17	X18	Y18	Z18	
29	0.241667	-132.844	28.5982	121.392	-125.789	11.5355	84.8679	-136.061	4.63211	55.3721	-166.387	-0.432063	43.8	-134.474	61.3859	42.5785	-127.632	60.2077	16.0786	-123.741	56.3505	-12.8221	-162.913	62.6237	29.735	-157.617	59.3002	2.14709	-154.351	54.5145	-29.7377	-185.515	51.7676	32.75	-185.694	49.875	5.77496	-188.919	45.8781	-17.6562	-200.617	33.4081	46.6125	-190.179	9.84627	29.2124	-171.623	-7.14929	49.1499	-188.517	57.1659	94.9563	-194.349	54.174	126.128	-159.287	63.2158	114.154	
30	0.25	-133.356	16.7379	118.318	-124.822	-6.54042	83.9443	-142.257	-10.6066	61.8577	-170.755	-10.798	48.9253	-122.701	40.5341	37.8512	-123.718	35.4517	15.9004	-121.595	26.9588	-15.0648	-157.117	46.0498	31.2938	-153.962	40.5023	1.36201	-153.525	33.1458	-26.0636	-182.174	40.2581	30.6984	-185.154	35.0447	4.75229	-181.507	29.695	-18.8666	-200.831	23.7234	45.7351	-194.749	-0.0915284	32.5824	-176.038	-22.4709	55.082	-186.837	52.336	90.5324	-190.439	50.2612	126.533	-153.951	52.944	111.411	
31	0.258333	-130.517	8.01296	123.017	-123.559	-21.3235	89.9456	-140.429	-24.7886	66.9625	-168.458	-28.4919	50.538	-122.08	21.3103	37.4194	-116.554	11.3547	17.3135	-115.433	-0.996684	-8.78624	-150.089	27.9662	26.4188	-147.526	17.8937	1.26394	-145.521	8.66207	-26.9562	-180.523	23.9166	33.1088	-178.83	16.3263	9.18812	-178.896	6.74403	-16.9605	-200.827	11.3914	49.7192	-194.026	-18.4447	38.1717	-177.787	-34.1964	58.8408	-181.595	43.8551	89.9328	-184.741	45.0598	125.727	-145.766	42.9639	109.431	
32	0.266667	-127.638	6.03306	125.935	-118.119	-24.5022	99.6802	-131.653	-36.4466	73.0292	-159.537	-38.6249	60.5571	-115.285	11.4427	45.9642	-111.462	-3.08007	21.0359	-110.038	-17.5233	-2.41664	-146.745	12.9746	31.1604	-141.582	0.419856	5.8276	-136.612	-16.0405	-19.7339	-170.54	8.41945	33.4092	-170.922	-3.54268	10.7453	-168.349	-18.9094	-10.9659	-195.23	-7.81202	50.3457	-181.253	-34.1152	46.2559	-165.939	-44.333	73.891	-180.475	33.5554	86.3286	-184.945	39.0701	122.593	-151.477	37.3394	108.774	
33	0.275	-123.415	18.6559	130.578	-104.92	-12.392	105.888	-115.282	-31.0889	78.5976	-137.71	-43.2786	70.3346	-114.528	13.1522	46.7336	-105.021	-0.0539311	24.6335	-96.1344	-16.3555	3.96928	-135.719	2.92583	31.9024	-127.485	-11.3298	11.7533	-117.383	-28.4515	-8.84401	-157.027	-10.0893	34.9373	-151.231	-24.8218	16.6482	-141.739	-43.1535	-2.83174	-176.998	-31.5835	53.0874	-156.362	-49.2784	59.8748	-143.062	-49.32	88.4865	-177.796	21.9478	84.1795	-189.262	30.2075	113.905	-155.795	39.2863	104.223	
34	0.283333	-134.106	39.3602	126.358	-98.7508	18.2151	109.661	-98.0622	-5.22181	88.8425	-114.21	-29.9186	80.3901	-117.031	27.0871	45.5423	-100.716	12.9203	22.1273	-90.3791	1.15826	7.08555	-127.581	2.49023	32.4221	-110.865	-11.7588	15.1044	-90.7462	-26.5506	-2.99589	-141.888	-19.6226	40.8229	-121.872	-30.2323	23.2688	-104.622	-46.2423	10.539	-151.495	-39.8642	65.7176	-120.68	-45.8568	75.3655	-116.833	-26.9883	101.114	-177.578	7.91617	82.5103	-195.987	14.8906	113.616	-168.851	36.4093	97.6486	
35	0.291667	-152.578	60.3629	116.686	-112.242	55.0287	98.0729	-98.9461	32.1126	86.5187	-97.4043	2.31436	86.9019	-128.13	40.1238	35.5801	-107.357	35.5884	14.5026	-92.1388	25.7204	1.3795	-121.53	6.36865	32.5363	-98.8901	5.47057	16.7794	-75.1229	-0.188635	0.720347	-120.103	-14.2137	47.311	-96.088	-17.3198	31.7216	-74.8783	-20.719	23.3996	-115.801	-28.416	71.9366	-92.0324	-13.7428	84.1497	-100.9	4.3154	106.005	-169.055	-3.56379	81.2103	-190.637	0.383376	110.661	-178.039	31.6183	92.8033	
36	0.3	-171.556	68.1883	107.334	-133.608	77.0283	88	-110.945	61.0405	78.9331	-91.7385	33.9928	81.8959	-141.14	43.6468	29.9727	-126.655	43.4186	10.8322	-108.104	39.7607	-8.64726	-125.484	19.6706	30.8388	-105.713	24.1348	12.9496	-78.9859	21.9674	-2.75741	-112.513	3.44576	49.1097	-90.8678	7.53509	34.5	-64.3704	13.1848	19.4707	-101.756	-0.572135	73.2305	-87.3736	21.4897	80.6343	-104.19	37.3879	103.842	-158.943	-3.06114	87.9394	-179.571	-2.06045	113.02	-181.891	27.2921	90.5949	
37	0.308333	-182.543	68.8328	105.467	-151.748	85.7342	80.9254	-127.9	76.3269	69.7991	-103.457	53.8107	70.1004	-162.547	47.6268	23.1352	-153.513	49.1825	0.91798	-141.175	50.5864	-21.4069	-142.049	25.6362	27.72	-125.299	31.5184	3.54678	-103.243	35.4982	-16.65	-121.466	14.8202	42.2105	-102.79	25.4601	19.8135	-79.1565	31.2736	5.63667	-109.003	11.1932	67.53	-93.55	39.0785	69.8858	-112.332	56.4137	88.7386	-163.297	6.1149	88.8954	-174.362	-1.3999	118.533	-190.495	29.8901	90.9165	
38	0.316667	-188.921	71.5662	109.714	-162.68	92.4783	79.4428	-142.025	80.3941	58.4504	-122.978	57.5728	59.0323	-192.726	51.0648	30.3454	-190.554	53.2861	0.670096	-179.45	49.6379	-24.1661	-174.019	31.5938	23.5626	-160.59	33.2298	-4.52412	-142.997	36.6826	-32.3264	-148.937	20.6265	31.4953	-134.078	26.3291	8.4209	-116.784	34.4644	-9.4216	-128.479	17.5666	53.6706	-111.537	41.2376	53.4122	-124.154	57.4961	83.5961	-172.553	8.75809	89.1181	-183.139	7.81256	119.642	-202.737	34.2446	98.1052	
39	0.325	-185.039	74.6708	110.808	-161.45	85.0217	78.6783	-149.023	68.5767	50.1397	-138.29	37.0659	46.7832	-211.039	57.1162	29.8229	-212.673	56.8732	7.2868	-206.603	54.8865	-23.6815	-200.854	29.1475	22.8432	-196.528	30.6111	-6.93579	-186.228	29.3681	-32.7919	-182.056	16.6339	29.4837	-171.236	16.4629	0.722543	-155.898	18.5346	-23.2455	-156.743	7.20539	43.4751	-135.607	26.1776	39.1561	-134.658	40.4267	69.5081	-195.361	13.3501	89.2338	-194.228	10.2774	121.509	-210.371	44.8778	105.407	
40	0.333333	-166.14	74.7419	109.198	-145.668	69.4576	73.7366	-144.759	51.5907	47.0399	-149.284	19.7588	39.6901	-200.437	70.3654	28.6169	-198.771	72.3817	4.46226	-196.99	65.473	-21.12	-207.88	44.3215	22.9596	-206.513	44.5619	-4.90036	-200.543	44.7126	-35.9239	-201.222	20.123	27.7104	-197.829	19.8598	-0.347134	-186.373	18.3137	-28.1693	-187.397	4.25848	42.4347	-160.316	6.17527	28.0751	-142.962	19.0489	54.4745	-209.255	19.6366	84.3498	-209.113	19.2849	120.121	-207.46	54.5299	104.679	
41	0.341667	-147.192	55.2498	112.048	-130.782	40.6364	78.3164	-141.098	26.7035	45.4455	-162.912	7.03664	39.2041	-170.144	74.783	32.435	-167.534	74.6207	8.66121	-167.913	68.5117	-18.1108	-195.577	57.8047	21.7513	-192.631	59.2661	-5.07075	-192.125	53.6024	-35.295	-207.213	33.9835	27.6878	-203.017	35.709	-0.115959	-198	31.2202	-26.8234	-207.571	9.95058	38.3933	-183.271	1.43632	22.1582	-157.453	-5.0582	45.0085	-211.29	37.0022	85.2441	-211.608	34.9645	118.905	-189.396	62.6084	107.213	
42	0.35	-141.731	31.6549	110.339	-127.338	13.5039	76.2272	-148.114	6.96765	49.4718	-170.314	-3.37642	41.046	-147.472	61.3724	33.988	-144.102	57.2231	5.89445	-143.251	53.0084	-21.5548	-179.326	55.1647	20.8687	-177.73	53.4609	-5.26982	-173.089	50.6678	-37.0372	-202.522	39.089	28.5535	-204.023	36.8325	-0.856206	-200.108	34.2333	-25.4997	-214.584	17.28	39.6219	-197.11	0.204091	21.6607	-173.073	-14.9243	37.7403	-204.824	44.4662	88.9098	-207.814	40.7663	121.087	-175.277	56.3688	108.126	
43	0.358333	-138.514	16.9982	113.632	-133.011	-3.32461	79.6649	-147.277	-9.9104	54.185	-177.927	-13.9302	41.6431	-141.94	41.9593	31.1451	-133.235	37.4298	9.69862	-134.538	29.6584	-16.3256	-171.905	43.0933	24.3576	-164.575	38.7603	-6.41695	-165.672	30.0093	-33.1609	-195.827	34.682	25.6992	-197.395	31.7053	2.77487	-199.649	24.4286	-24.3749	-210.954	17.7624	39.2215	-202.788	-4.46628	24.0661	-182.951	-24.8742	36.2762	-196.628	45.0382	86.3502	-205.055	43.037	121.319	-164.888	49.1123	108.882	
44	0.366667	-139.427	9.8702	120.059	-127.929	-16.8666	86.4127	-144.54	-22.8425	55.8785	-171.857	-24.0992	49.4746	-131.305	24.509	36.435	-126.806	16.283	13.3367	-126.512	3.42373	-14.0479	-159.604	27.0855	26.9444	-157.493	16.7952	0.599262	-153.802	4.14706	-28.9876	-188.539	20.5451	26.0027	-187.935	14.5891	4.44814	-188.96	2.25582	-21.6613	-205.424	9.51722	45.4757	-197.151	-18.2261	29.2581	-177.81	-37.7003	47.1542	-191.141	37.8644	88.1043	-194.24	41.2819	120.427	-157.232	44.0852	105.877	
45	0.375	-132.12	12.4281	125.835	-118.847	-14.4975	96.0936	-130.878	-25.6806	72.8587	-152.195	-35.6052	58.7361	-121.942	18.9979	42.1985	-113.712	6.88609	19.4705	-111.114	-7.27791	-3.21978	-147.797	14.2087	28.8975	-142.944	-0.985746	3.43455	-135.647	-14.7881	-18.4472	-171.249	7.8091	32.6434	-168.37	-4.50683	10.2689	-163.355	-22.8727	-14.7979	-191.467	-6.43798	45.5956	-180.335	-30.7385	36.0181	-161.806	-47.8763	54.6518	-190.217	28.6241	89.1052	-193.931	37.6094	122.377	-157.355	41.3391	110.237	
46	0.383333	-131.323	33.3821	128.084	-105.425	8.38829	106.672	-110.49	-9.08798	82.2556	-132.035	-27.5934	70.2048	-120.638	32.1278	47.0855	-110.498	21.4245	26.228	-101.101	3.4694	4.57201	-137.074	16.413	33.8619	-121.703	1.96565	10.8004	-109.181	-14.7175	-6.76614	-159.432	-3.40644	38.1042	-141.723	-12.6158	17.4926	-129.196	-31.1738	1.61615	-170.534	-17.6552	51.3598	-149.699	-31.0282	44.5598	-130.874	-41.8782	68.2433	-184.681	20.4215	87.9659	-199.179	26.3673	120.288	-164.584	46.002	108.717	
47	0.391667	-143.252	57.7701	119.157	-110.519	43.2879	101.175	-97.2886	21.6081	78.8505	-102.103	-8.13641	74.7373	-127.37	43.7508	35.37	-112.73	38.9839	19.8228	-94.8783	27.7615	-0.501099	-134.077	18.6076	32.4206	-112.143	9.69941	11.877	-87.478	3.19325	-5.23491	-134.858	-7.35105	38.5004	-116.284	-10.5981	23.0148	-94.0461	-21.0389	9.2584	-143.689	-19.4146	59.8806	-114.06	-22.8719	55.4459	-100.732	-13.2522	83.9499	-177.606	7.14866	88.0538	-195.229	14.7081	111.368	-178.447	45.3172	96.5046	
48	0.4	-163.344	67.8895	109.701	-125.152	69.3219	91.3536	-102.562	50.5202	73.8126	-98.6771	20.1425	77.902	-141.168	47.9918	27.7996	-124.041	44.998	9.05778	-105.139	40.6408	-9.17642	-132.12	19.9494	29.2746	-109.401	23.4656	7.27315	-83.3046	23.4072	-10.425	-124.859	2.23889	42.9163	-100.689	-3.38698	24.5585	-77.1719	2.14673	9.46378	-119.755	-12.5744	62.4046	-94.2499	3.10559	62.7241	-93.5631	19.9238	86.3717	-168.459	0.807581	88.06	-185.074	4.12207	111.597	-185.691	33.0577	91.9742	
49	0.408333	-179.462	73.4084	98.8901	-145.914	81.6374	80.9006	-121.306	66.7166	66.6223	-104.23	40.3173	70.4632	-158.637	48.9107	19.9216	-144.153	51.4681	-1.59911	-128.038	51.3158	-19.7855	-142.724	25.313	22.4195	-122.861	29.2095	1.77969	-96.985	31.621	-19.5881	-126.179	8.67018	38.3415	-105.716	12.7436	18.3279	-85.1126	15.5851	4.61514	-121.522	4.19145	63.7523	-99.6644	25.2538	59.1339	-104.754	44.2909	87.5516	-167.161	3.3872	84.5523	-183.335	6.94402	114.355	-192.637	31.3146	89.1984	
50	0.416667	-185.428	74.6763	104.944	-153.806	83.3866	75.7131	-133.221	67.9753	59.7074	-114.469	41.181	58.7523	-179.745	53.9529	22.9312	-166.113	50.5025	-4.46324	-154.455	53.3915	-24.7471	-163.071	26.7714	19.2245	-147.543	29.1947	-6.58822	-127.788	30.8728	-28.1997	-147.177	10.8248	32.3622	-126.134	11.6378	8.27632	-107.449	17.6383	-10.5153	-130.036	6.26848	53.2257	-108.955	25.4051	51.7851	-116.674	45.2661	77.4705	-178.59	5.9484	85.1075	-189.794	4.94184	114.157	-201.833	33.4685	91.1814	
